<mxfile host="app.diagrams.net" agent="Mozilla/5.0 (Windows NT 10.0; Win64; x64) AppleWebKit/537.36 (KHTML, like Gecko) Chrome/131.0.0.0 Safari/537.36" version="25.0.3">
  <diagram name="Trang-1" id="gnIFKvOJuoWw1lOpL-ZZ">
    <mxGraphModel grid="1" page="1" gridSize="10" guides="1" tooltips="1" connect="1" arrows="1" fold="1" pageScale="1" pageWidth="2339" pageHeight="3300" math="0" shadow="0">
      <root>
        <mxCell id="0" />
        <mxCell id="1" parent="0" />
        <mxCell id="7AMX3jtm55g2jYNaYmeq-1" value="Khách hàng" style="shape=umlActor;verticalLabelPosition=bottom;verticalAlign=top;html=1;outlineConnect=0;" vertex="1" parent="1">
          <mxGeometry x="203" y="170" width="30" height="60" as="geometry" />
        </mxCell>
        <mxCell id="7AMX3jtm55g2jYNaYmeq-2" value="Quản lí tài khoản" style="ellipse;whiteSpace=wrap;html=1;" vertex="1" parent="1">
          <mxGeometry x="960" y="620" width="120" height="80" as="geometry" />
        </mxCell>
        <mxCell id="7AMX3jtm55g2jYNaYmeq-4" value="Admin" style="shape=umlActor;verticalLabelPosition=bottom;verticalAlign=top;html=1;outlineConnect=0;" vertex="1" parent="1">
          <mxGeometry x="740" y="650" width="30" height="60" as="geometry" />
        </mxCell>
        <mxCell id="7AMX3jtm55g2jYNaYmeq-5" value="Nhân viên" style="shape=umlActor;verticalLabelPosition=bottom;verticalAlign=top;html=1;outlineConnect=0;" vertex="1" parent="1">
          <mxGeometry x="900" y="70" width="30" height="60" as="geometry" />
        </mxCell>
        <mxCell id="7AMX3jtm55g2jYNaYmeq-6" value="Ngân hàng" style="shape=umlActor;verticalLabelPosition=bottom;verticalAlign=top;html=1;outlineConnect=0;" vertex="1" parent="1">
          <mxGeometry x="150" y="590" width="30" height="60" as="geometry" />
        </mxCell>
        <mxCell id="7AMX3jtm55g2jYNaYmeq-10" value="Xem thông tin tour" style="ellipse;whiteSpace=wrap;html=1;" vertex="1" parent="1">
          <mxGeometry x="580" y="310" width="120" height="80" as="geometry" />
        </mxCell>
        <mxCell id="7AMX3jtm55g2jYNaYmeq-11" value="Đặt tour" style="ellipse;whiteSpace=wrap;html=1;" vertex="1" parent="1">
          <mxGeometry x="260" y="50" width="120" height="80" as="geometry" />
        </mxCell>
        <mxCell id="7AMX3jtm55g2jYNaYmeq-12" value="Quản lí tour" style="ellipse;whiteSpace=wrap;html=1;" vertex="1" parent="1">
          <mxGeometry x="920" y="480" width="120" height="80" as="geometry" />
        </mxCell>
        <mxCell id="7AMX3jtm55g2jYNaYmeq-13" value="Thống kê" style="ellipse;whiteSpace=wrap;html=1;" vertex="1" parent="1">
          <mxGeometry x="810" y="740" width="120" height="80" as="geometry" />
        </mxCell>
        <mxCell id="7AMX3jtm55g2jYNaYmeq-14" value="Thanh toán" style="ellipse;whiteSpace=wrap;html=1;" vertex="1" parent="1">
          <mxGeometry x="420" y="460" width="120" height="80" as="geometry" />
        </mxCell>
        <mxCell id="7AMX3jtm55g2jYNaYmeq-15" value="Quản lí đặt tour" style="ellipse;whiteSpace=wrap;html=1;" vertex="1" parent="1">
          <mxGeometry x="500" y="770" width="120" height="80" as="geometry" />
        </mxCell>
        <mxCell id="7AMX3jtm55g2jYNaYmeq-16" value="Đăng nhập" style="ellipse;whiteSpace=wrap;html=1;" vertex="1" parent="1">
          <mxGeometry x="730" y="480" width="120" height="80" as="geometry" />
        </mxCell>
        <mxCell id="7AMX3jtm55g2jYNaYmeq-18" value="Đánh giá tour" style="ellipse;whiteSpace=wrap;html=1;" vertex="1" parent="1">
          <mxGeometry x="540" y="50" width="120" height="80" as="geometry" />
        </mxCell>
        <mxCell id="7AMX3jtm55g2jYNaYmeq-19" value="Tìm kiếm tour&lt;span style=&quot;color: rgba(0, 0, 0, 0); font-family: monospace; font-size: 0px; text-align: start; text-wrap-mode: nowrap;&quot;&gt;%3CmxGraphModel%3E%3Croot%3E%3CmxCell%20id%3D%220%22%2F%3E%3CmxCell%20id%3D%221%22%20parent%3D%220%22%2F%3E%3CmxCell%20id%3D%222%22%20value%3D%22%C4%90%E1%BA%B7t%20tour%22%20style%3D%22ellipse%3BwhiteSpace%3Dwrap%3Bhtml%3D1%3B%22%20vertex%3D%221%22%20parent%3D%221%22%3E%3CmxGeometry%20x%3D%22630%22%20y%3D%22270%22%20width%3D%22120%22%20height%3D%2280%22%20as%3D%22geometry%22%2F%3E%3C%2FmxCell%3E%3C%2Froot%3E%3C%2FmxGraphModel%3E&lt;/span&gt;" style="ellipse;whiteSpace=wrap;html=1;" vertex="1" parent="1">
          <mxGeometry x="420" y="190" width="120" height="80" as="geometry" />
        </mxCell>
        <mxCell id="7AMX3jtm55g2jYNaYmeq-22" value="Đăng ký" style="ellipse;whiteSpace=wrap;html=1;" vertex="1" parent="1">
          <mxGeometry x="158" y="340" width="120" height="80" as="geometry" />
        </mxCell>
        <mxCell id="7AMX3jtm55g2jYNaYmeq-50" value="" style="endArrow=none;html=1;rounded=0;" edge="1" parent="1" source="7AMX3jtm55g2jYNaYmeq-6" target="7AMX3jtm55g2jYNaYmeq-14">
          <mxGeometry width="50" height="50" relative="1" as="geometry">
            <mxPoint x="540" y="490" as="sourcePoint" />
            <mxPoint x="590" y="440" as="targetPoint" />
          </mxGeometry>
        </mxCell>
        <mxCell id="7AMX3jtm55g2jYNaYmeq-51" value="" style="endArrow=none;html=1;rounded=0;" edge="1" parent="1" source="7AMX3jtm55g2jYNaYmeq-14" target="7AMX3jtm55g2jYNaYmeq-1">
          <mxGeometry width="50" height="50" relative="1" as="geometry">
            <mxPoint x="180" y="490" as="sourcePoint" />
            <mxPoint x="230" y="440" as="targetPoint" />
          </mxGeometry>
        </mxCell>
        <mxCell id="7AMX3jtm55g2jYNaYmeq-52" value="" style="endArrow=none;html=1;rounded=0;" edge="1" parent="1" source="7AMX3jtm55g2jYNaYmeq-22" target="7AMX3jtm55g2jYNaYmeq-1">
          <mxGeometry width="50" height="50" relative="1" as="geometry">
            <mxPoint x="540" y="490" as="sourcePoint" />
            <mxPoint x="590" y="440" as="targetPoint" />
          </mxGeometry>
        </mxCell>
        <mxCell id="7AMX3jtm55g2jYNaYmeq-53" value="" style="endArrow=none;html=1;rounded=0;" edge="1" parent="1" source="7AMX3jtm55g2jYNaYmeq-1" target="7AMX3jtm55g2jYNaYmeq-11">
          <mxGeometry width="50" height="50" relative="1" as="geometry">
            <mxPoint x="540" y="200" as="sourcePoint" />
            <mxPoint x="590" y="150" as="targetPoint" />
          </mxGeometry>
        </mxCell>
        <mxCell id="7AMX3jtm55g2jYNaYmeq-55" value="" style="endArrow=none;html=1;rounded=0;" edge="1" parent="1" source="7AMX3jtm55g2jYNaYmeq-1" target="7AMX3jtm55g2jYNaYmeq-19">
          <mxGeometry width="50" height="50" relative="1" as="geometry">
            <mxPoint x="540" y="490" as="sourcePoint" />
            <mxPoint x="590" y="440" as="targetPoint" />
          </mxGeometry>
        </mxCell>
        <mxCell id="7AMX3jtm55g2jYNaYmeq-56" value="" style="endArrow=none;html=1;rounded=0;" edge="1" parent="1" source="7AMX3jtm55g2jYNaYmeq-1" target="7AMX3jtm55g2jYNaYmeq-10">
          <mxGeometry width="50" height="50" relative="1" as="geometry">
            <mxPoint x="540" y="490" as="sourcePoint" />
            <mxPoint x="590" y="440" as="targetPoint" />
          </mxGeometry>
        </mxCell>
        <mxCell id="7AMX3jtm55g2jYNaYmeq-58" value="" style="endArrow=none;html=1;rounded=0;" edge="1" parent="1" source="7AMX3jtm55g2jYNaYmeq-5" target="7AMX3jtm55g2jYNaYmeq-10">
          <mxGeometry width="50" height="50" relative="1" as="geometry">
            <mxPoint x="540" y="490" as="sourcePoint" />
            <mxPoint x="590" y="440" as="targetPoint" />
          </mxGeometry>
        </mxCell>
        <mxCell id="7AMX3jtm55g2jYNaYmeq-59" value="" style="endArrow=none;html=1;rounded=0;" edge="1" parent="1" source="7AMX3jtm55g2jYNaYmeq-1" target="7AMX3jtm55g2jYNaYmeq-16">
          <mxGeometry width="50" height="50" relative="1" as="geometry">
            <mxPoint x="540" y="490" as="sourcePoint" />
            <mxPoint x="590" y="440" as="targetPoint" />
          </mxGeometry>
        </mxCell>
        <mxCell id="7AMX3jtm55g2jYNaYmeq-60" value="" style="endArrow=none;html=1;rounded=0;" edge="1" parent="1" source="7AMX3jtm55g2jYNaYmeq-16" target="7AMX3jtm55g2jYNaYmeq-5">
          <mxGeometry width="50" height="50" relative="1" as="geometry">
            <mxPoint x="540" y="490" as="sourcePoint" />
            <mxPoint x="590" y="440" as="targetPoint" />
          </mxGeometry>
        </mxCell>
        <mxCell id="7AMX3jtm55g2jYNaYmeq-62" value="" style="endArrow=none;html=1;rounded=0;" edge="1" parent="1" source="7AMX3jtm55g2jYNaYmeq-4" target="7AMX3jtm55g2jYNaYmeq-10">
          <mxGeometry width="50" height="50" relative="1" as="geometry">
            <mxPoint x="540" y="490" as="sourcePoint" />
            <mxPoint x="590" y="440" as="targetPoint" />
          </mxGeometry>
        </mxCell>
        <mxCell id="7AMX3jtm55g2jYNaYmeq-63" value="" style="endArrow=none;html=1;rounded=0;" edge="1" parent="1" source="7AMX3jtm55g2jYNaYmeq-4" target="7AMX3jtm55g2jYNaYmeq-16">
          <mxGeometry width="50" height="50" relative="1" as="geometry">
            <mxPoint x="540" y="490" as="sourcePoint" />
            <mxPoint x="590" y="440" as="targetPoint" />
          </mxGeometry>
        </mxCell>
        <mxCell id="7AMX3jtm55g2jYNaYmeq-64" value="" style="endArrow=none;html=1;rounded=0;" edge="1" parent="1" source="7AMX3jtm55g2jYNaYmeq-14" target="7AMX3jtm55g2jYNaYmeq-4">
          <mxGeometry width="50" height="50" relative="1" as="geometry">
            <mxPoint x="540" y="490" as="sourcePoint" />
            <mxPoint x="710" y="580" as="targetPoint" />
          </mxGeometry>
        </mxCell>
        <mxCell id="7AMX3jtm55g2jYNaYmeq-66" value="" style="endArrow=none;html=1;rounded=0;" edge="1" parent="1" source="7AMX3jtm55g2jYNaYmeq-12" target="7AMX3jtm55g2jYNaYmeq-4">
          <mxGeometry width="50" height="50" relative="1" as="geometry">
            <mxPoint x="540" y="490" as="sourcePoint" />
            <mxPoint x="590" y="440" as="targetPoint" />
          </mxGeometry>
        </mxCell>
        <mxCell id="7AMX3jtm55g2jYNaYmeq-68" value="" style="endArrow=none;html=1;rounded=0;" edge="1" parent="1" source="7AMX3jtm55g2jYNaYmeq-4" target="7AMX3jtm55g2jYNaYmeq-13">
          <mxGeometry width="50" height="50" relative="1" as="geometry">
            <mxPoint x="540" y="490" as="sourcePoint" />
            <mxPoint x="590" y="440" as="targetPoint" />
          </mxGeometry>
        </mxCell>
        <mxCell id="7AMX3jtm55g2jYNaYmeq-70" value="" style="endArrow=none;html=1;rounded=0;" edge="1" parent="1" source="7AMX3jtm55g2jYNaYmeq-2" target="7AMX3jtm55g2jYNaYmeq-4">
          <mxGeometry width="50" height="50" relative="1" as="geometry">
            <mxPoint x="560" y="510" as="sourcePoint" />
            <mxPoint x="610" y="460" as="targetPoint" />
          </mxGeometry>
        </mxCell>
        <mxCell id="7AMX3jtm55g2jYNaYmeq-73" value="" style="endArrow=none;html=1;rounded=0;" edge="1" parent="1" source="7AMX3jtm55g2jYNaYmeq-15" target="7AMX3jtm55g2jYNaYmeq-4">
          <mxGeometry width="50" height="50" relative="1" as="geometry">
            <mxPoint x="555" y="1191" as="sourcePoint" />
            <mxPoint x="743" y="710" as="targetPoint" />
          </mxGeometry>
        </mxCell>
        <mxCell id="KeoQv2RjLq5qJfcVeI9I-1" value="" style="whiteSpace=wrap;html=1;aspect=fixed;" vertex="1" parent="1">
          <mxGeometry x="600" y="970" width="470" height="470" as="geometry" />
        </mxCell>
        <mxCell id="KeoQv2RjLq5qJfcVeI9I-2" value="Admin" style="shape=umlActor;verticalLabelPosition=bottom;verticalAlign=top;html=1;outlineConnect=0;" vertex="1" parent="1">
          <mxGeometry x="465" y="1145" width="30" height="60" as="geometry" />
        </mxCell>
        <mxCell id="KeoQv2RjLq5qJfcVeI9I-4" value="Xác nhận đặt tour" style="ellipse;whiteSpace=wrap;html=1;" vertex="1" parent="1">
          <mxGeometry x="710" y="1010" width="120" height="80" as="geometry" />
        </mxCell>
        <mxCell id="KeoQv2RjLq5qJfcVeI9I-5" value="Danh sách lịch sử đặt tour" style="ellipse;whiteSpace=wrap;html=1;" vertex="1" parent="1">
          <mxGeometry x="780" y="1125" width="120" height="80" as="geometry" />
        </mxCell>
        <mxCell id="KeoQv2RjLq5qJfcVeI9I-7" value="" style="endArrow=none;html=1;rounded=0;" edge="1" parent="1" source="KeoQv2RjLq5qJfcVeI9I-2" target="KeoQv2RjLq5qJfcVeI9I-4">
          <mxGeometry width="50" height="50" relative="1" as="geometry">
            <mxPoint x="620" y="1150" as="sourcePoint" />
            <mxPoint x="670" y="1100" as="targetPoint" />
          </mxGeometry>
        </mxCell>
        <mxCell id="KeoQv2RjLq5qJfcVeI9I-8" value="" style="endArrow=none;html=1;rounded=0;" edge="1" parent="1" source="KeoQv2RjLq5qJfcVeI9I-2" target="KeoQv2RjLq5qJfcVeI9I-5">
          <mxGeometry width="50" height="50" relative="1" as="geometry">
            <mxPoint x="505" y="1176" as="sourcePoint" />
            <mxPoint x="686" y="1067" as="targetPoint" />
          </mxGeometry>
        </mxCell>
        <mxCell id="KeoQv2RjLq5qJfcVeI9I-26" value="Huỷ tour đẵ đặt" style="ellipse;whiteSpace=wrap;html=1;" vertex="1" parent="1">
          <mxGeometry x="770" y="1220" width="120" height="80" as="geometry" />
        </mxCell>
        <mxCell id="KeoQv2RjLq5qJfcVeI9I-27" value="Sửa thông tin đặt tour" style="ellipse;whiteSpace=wrap;html=1;" vertex="1" parent="1">
          <mxGeometry x="670" y="1330" width="120" height="80" as="geometry" />
        </mxCell>
        <mxCell id="KeoQv2RjLq5qJfcVeI9I-29" value="" style="endArrow=none;html=1;rounded=0;" edge="1" parent="1" source="KeoQv2RjLq5qJfcVeI9I-2" target="KeoQv2RjLq5qJfcVeI9I-26">
          <mxGeometry width="50" height="50" relative="1" as="geometry">
            <mxPoint x="620" y="1270" as="sourcePoint" />
            <mxPoint x="670" y="1220" as="targetPoint" />
          </mxGeometry>
        </mxCell>
        <mxCell id="KeoQv2RjLq5qJfcVeI9I-30" value="" style="endArrow=none;html=1;rounded=0;" edge="1" parent="1" source="KeoQv2RjLq5qJfcVeI9I-2" target="KeoQv2RjLq5qJfcVeI9I-27">
          <mxGeometry width="50" height="50" relative="1" as="geometry">
            <mxPoint x="620" y="1270" as="sourcePoint" />
            <mxPoint x="670" y="1220" as="targetPoint" />
          </mxGeometry>
        </mxCell>
        <mxCell id="KeoQv2RjLq5qJfcVeI9I-31" value="Xem chi tiết đặt tour" style="ellipse;whiteSpace=wrap;html=1;" vertex="1" parent="1">
          <mxGeometry x="940" y="1030" width="120" height="80" as="geometry" />
        </mxCell>
        <mxCell id="KeoQv2RjLq5qJfcVeI9I-32" value="" style="endArrow=classic;html=1;rounded=0;dashed=1;" edge="1" parent="1" source="KeoQv2RjLq5qJfcVeI9I-5" target="KeoQv2RjLq5qJfcVeI9I-31">
          <mxGeometry width="50" height="50" relative="1" as="geometry">
            <mxPoint x="620" y="1270" as="sourcePoint" />
            <mxPoint x="670" y="1220" as="targetPoint" />
          </mxGeometry>
        </mxCell>
        <mxCell id="KeoQv2RjLq5qJfcVeI9I-33" value="include" style="edgeLabel;html=1;align=center;verticalAlign=middle;resizable=0;points=[];rotation=-30;" connectable="0" vertex="1" parent="KeoQv2RjLq5qJfcVeI9I-32">
          <mxGeometry x="-0.2042" y="-2" relative="1" as="geometry">
            <mxPoint x="-4" y="-13" as="offset" />
          </mxGeometry>
        </mxCell>
        <mxCell id="gFD3gZ6_1vJ-BwYEMqNf-13" value="" style="whiteSpace=wrap;html=1;aspect=fixed;" vertex="1" parent="1">
          <mxGeometry x="625" y="1490" width="470" height="470" as="geometry" />
        </mxCell>
        <mxCell id="gFD3gZ6_1vJ-BwYEMqNf-14" value="Cấp tài khoản cho nhân viên" style="ellipse;whiteSpace=wrap;html=1;" vertex="1" parent="1">
          <mxGeometry x="735" y="1530" width="120" height="80" as="geometry" />
        </mxCell>
        <mxCell id="gFD3gZ6_1vJ-BwYEMqNf-15" value="Xem danh sách tài khoản" style="ellipse;whiteSpace=wrap;html=1;" vertex="1" parent="1">
          <mxGeometry x="690" y="1645" width="120" height="80" as="geometry" />
        </mxCell>
        <mxCell id="gFD3gZ6_1vJ-BwYEMqNf-16" value="" style="endArrow=none;html=1;rounded=0;" edge="1" parent="1" target="gFD3gZ6_1vJ-BwYEMqNf-14">
          <mxGeometry width="50" height="50" relative="1" as="geometry">
            <mxPoint x="520" y="1689" as="sourcePoint" />
            <mxPoint x="695" y="1620" as="targetPoint" />
          </mxGeometry>
        </mxCell>
        <mxCell id="gFD3gZ6_1vJ-BwYEMqNf-17" value="" style="endArrow=none;html=1;rounded=0;" edge="1" parent="1" target="gFD3gZ6_1vJ-BwYEMqNf-15">
          <mxGeometry width="50" height="50" relative="1" as="geometry">
            <mxPoint x="520" y="1695" as="sourcePoint" />
            <mxPoint x="711" y="1587" as="targetPoint" />
          </mxGeometry>
        </mxCell>
        <mxCell id="gFD3gZ6_1vJ-BwYEMqNf-18" value="Phân quyền" style="ellipse;whiteSpace=wrap;html=1;" vertex="1" parent="1">
          <mxGeometry x="920" y="1750" width="120" height="80" as="geometry" />
        </mxCell>
        <mxCell id="gFD3gZ6_1vJ-BwYEMqNf-19" value="Khoá hoặc mở tài khoản" style="ellipse;whiteSpace=wrap;html=1;" vertex="1" parent="1">
          <mxGeometry x="830" y="1820" width="120" height="80" as="geometry" />
        </mxCell>
        <mxCell id="gFD3gZ6_1vJ-BwYEMqNf-22" value="Xoá tài khoản" style="ellipse;whiteSpace=wrap;html=1;" vertex="1" parent="1">
          <mxGeometry x="930" y="1565" width="120" height="80" as="geometry" />
        </mxCell>
        <mxCell id="gFD3gZ6_1vJ-BwYEMqNf-23" value="" style="endArrow=classic;html=1;rounded=0;dashed=1;" edge="1" parent="1" source="gFD3gZ6_1vJ-BwYEMqNf-15" target="gFD3gZ6_1vJ-BwYEMqNf-22">
          <mxGeometry width="50" height="50" relative="1" as="geometry">
            <mxPoint x="645" y="1790" as="sourcePoint" />
            <mxPoint x="695" y="1740" as="targetPoint" />
          </mxGeometry>
        </mxCell>
        <mxCell id="gFD3gZ6_1vJ-BwYEMqNf-24" value="include" style="edgeLabel;html=1;align=center;verticalAlign=middle;resizable=0;points=[];rotation=-30;" connectable="0" vertex="1" parent="gFD3gZ6_1vJ-BwYEMqNf-23">
          <mxGeometry x="-0.2042" y="-2" relative="1" as="geometry">
            <mxPoint x="-4" y="-13" as="offset" />
          </mxGeometry>
        </mxCell>
        <mxCell id="gFD3gZ6_1vJ-BwYEMqNf-25" value="Admin" style="shape=umlActor;verticalLabelPosition=bottom;verticalAlign=top;html=1;outlineConnect=0;" vertex="1" parent="1">
          <mxGeometry x="480" y="1665" width="30" height="60" as="geometry" />
        </mxCell>
        <mxCell id="gFD3gZ6_1vJ-BwYEMqNf-27" value="Sửa tài khoản" style="ellipse;whiteSpace=wrap;html=1;" vertex="1" parent="1">
          <mxGeometry x="950" y="1650" width="120" height="80" as="geometry" />
        </mxCell>
        <mxCell id="gFD3gZ6_1vJ-BwYEMqNf-28" value="" style="endArrow=classic;html=1;rounded=0;dashed=1;" edge="1" parent="1" source="gFD3gZ6_1vJ-BwYEMqNf-15" target="gFD3gZ6_1vJ-BwYEMqNf-27">
          <mxGeometry width="50" height="50" relative="1" as="geometry">
            <mxPoint x="814" y="1677" as="sourcePoint" />
            <mxPoint x="946" y="1633" as="targetPoint" />
          </mxGeometry>
        </mxCell>
        <mxCell id="gFD3gZ6_1vJ-BwYEMqNf-29" value="include" style="edgeLabel;html=1;align=center;verticalAlign=middle;resizable=0;points=[];rotation=-5;" connectable="0" vertex="1" parent="gFD3gZ6_1vJ-BwYEMqNf-28">
          <mxGeometry x="-0.2042" y="-2" relative="1" as="geometry">
            <mxPoint x="-4" y="-13" as="offset" />
          </mxGeometry>
        </mxCell>
        <mxCell id="gFD3gZ6_1vJ-BwYEMqNf-30" value="" style="endArrow=classic;html=1;rounded=0;dashed=1;" edge="1" parent="1" source="gFD3gZ6_1vJ-BwYEMqNf-15" target="gFD3gZ6_1vJ-BwYEMqNf-18">
          <mxGeometry width="50" height="50" relative="1" as="geometry">
            <mxPoint x="804.5186784900563" y="1719.9976202010255" as="sourcePoint" />
            <mxPoint x="935.4747667704969" y="1779.8297848300097" as="targetPoint" />
          </mxGeometry>
        </mxCell>
        <mxCell id="gFD3gZ6_1vJ-BwYEMqNf-31" value="include" style="edgeLabel;html=1;align=center;verticalAlign=middle;resizable=0;points=[];rotation=30;" connectable="0" vertex="1" parent="gFD3gZ6_1vJ-BwYEMqNf-30">
          <mxGeometry x="-0.2042" y="-2" relative="1" as="geometry">
            <mxPoint x="19" y="-8" as="offset" />
          </mxGeometry>
        </mxCell>
        <mxCell id="gFD3gZ6_1vJ-BwYEMqNf-32" value="" style="endArrow=classic;html=1;rounded=0;dashed=1;" edge="1" parent="1" source="gFD3gZ6_1vJ-BwYEMqNf-19" target="gFD3gZ6_1vJ-BwYEMqNf-15">
          <mxGeometry width="50" height="50" relative="1" as="geometry">
            <mxPoint x="834" y="1697" as="sourcePoint" />
            <mxPoint x="966" y="1653" as="targetPoint" />
          </mxGeometry>
        </mxCell>
        <mxCell id="gFD3gZ6_1vJ-BwYEMqNf-33" value="extend" style="edgeLabel;html=1;align=center;verticalAlign=middle;resizable=0;points=[];rotation=60;" connectable="0" vertex="1" parent="gFD3gZ6_1vJ-BwYEMqNf-32">
          <mxGeometry x="-0.2042" y="-2" relative="1" as="geometry">
            <mxPoint y="-12" as="offset" />
          </mxGeometry>
        </mxCell>
        <mxCell id="1Qu4DmAcdT47iRia6wyo-1" value="" style="endArrow=classic;html=1;rounded=0;dashed=1;" edge="1" parent="1" source="7AMX3jtm55g2jYNaYmeq-18" target="7AMX3jtm55g2jYNaYmeq-11">
          <mxGeometry width="50" height="50" relative="1" as="geometry">
            <mxPoint x="494" y="75" as="sourcePoint" />
            <mxPoint x="410" y="-30" as="targetPoint" />
          </mxGeometry>
        </mxCell>
        <mxCell id="1Qu4DmAcdT47iRia6wyo-2" value="extend" style="edgeLabel;html=1;align=center;verticalAlign=middle;resizable=0;points=[];rotation=0;" connectable="0" vertex="1" parent="1Qu4DmAcdT47iRia6wyo-1">
          <mxGeometry x="-0.2042" y="-2" relative="1" as="geometry">
            <mxPoint y="-12" as="offset" />
          </mxGeometry>
        </mxCell>
        <mxCell id="cK2Vru4bfPYbz4dzpwC5-1" value="" style="whiteSpace=wrap;html=1;aspect=fixed;" vertex="1" parent="1">
          <mxGeometry x="610" y="2020" width="470" height="470" as="geometry" />
        </mxCell>
        <mxCell id="cK2Vru4bfPYbz4dzpwC5-2" value="Admin" style="shape=umlActor;verticalLabelPosition=bottom;verticalAlign=top;html=1;outlineConnect=0;" vertex="1" parent="1">
          <mxGeometry x="475" y="2195" width="30" height="60" as="geometry" />
        </mxCell>
        <mxCell id="cK2Vru4bfPYbz4dzpwC5-3" value="Thêm tour" style="ellipse;whiteSpace=wrap;html=1;" vertex="1" parent="1">
          <mxGeometry x="720" y="2060" width="120" height="80" as="geometry" />
        </mxCell>
        <mxCell id="cK2Vru4bfPYbz4dzpwC5-4" value="Xem danh sách tour" style="ellipse;whiteSpace=wrap;html=1;" vertex="1" parent="1">
          <mxGeometry x="700" y="2215" width="120" height="80" as="geometry" />
        </mxCell>
        <mxCell id="cK2Vru4bfPYbz4dzpwC5-5" value="" style="endArrow=none;html=1;rounded=0;" edge="1" parent="1" source="cK2Vru4bfPYbz4dzpwC5-2" target="cK2Vru4bfPYbz4dzpwC5-3">
          <mxGeometry width="50" height="50" relative="1" as="geometry">
            <mxPoint x="630" y="2200" as="sourcePoint" />
            <mxPoint x="680" y="2150" as="targetPoint" />
          </mxGeometry>
        </mxCell>
        <mxCell id="cK2Vru4bfPYbz4dzpwC5-6" value="" style="endArrow=none;html=1;rounded=0;" edge="1" parent="1" source="cK2Vru4bfPYbz4dzpwC5-2" target="cK2Vru4bfPYbz4dzpwC5-4">
          <mxGeometry width="50" height="50" relative="1" as="geometry">
            <mxPoint x="515" y="2226" as="sourcePoint" />
            <mxPoint x="696" y="2117" as="targetPoint" />
          </mxGeometry>
        </mxCell>
        <mxCell id="cK2Vru4bfPYbz4dzpwC5-8" value="Sửa tour" style="ellipse;whiteSpace=wrap;html=1;" vertex="1" parent="1">
          <mxGeometry x="940" y="2260" width="120" height="80" as="geometry" />
        </mxCell>
        <mxCell id="cK2Vru4bfPYbz4dzpwC5-11" value="Xoá tour" style="ellipse;whiteSpace=wrap;html=1;" vertex="1" parent="1">
          <mxGeometry x="950" y="2080" width="120" height="80" as="geometry" />
        </mxCell>
        <mxCell id="cK2Vru4bfPYbz4dzpwC5-12" value="" style="endArrow=classic;html=1;rounded=0;dashed=1;" edge="1" parent="1" source="cK2Vru4bfPYbz4dzpwC5-4" target="cK2Vru4bfPYbz4dzpwC5-11">
          <mxGeometry width="50" height="50" relative="1" as="geometry">
            <mxPoint x="630" y="2320" as="sourcePoint" />
            <mxPoint x="680" y="2270" as="targetPoint" />
          </mxGeometry>
        </mxCell>
        <mxCell id="cK2Vru4bfPYbz4dzpwC5-13" value="include" style="edgeLabel;html=1;align=center;verticalAlign=middle;resizable=0;points=[];rotation=-30;" connectable="0" vertex="1" parent="cK2Vru4bfPYbz4dzpwC5-12">
          <mxGeometry x="-0.2042" y="-2" relative="1" as="geometry">
            <mxPoint x="-4" y="-13" as="offset" />
          </mxGeometry>
        </mxCell>
        <mxCell id="cK2Vru4bfPYbz4dzpwC5-14" value="" style="endArrow=classic;html=1;rounded=0;dashed=1;" edge="1" parent="1" source="cK2Vru4bfPYbz4dzpwC5-4" target="cK2Vru4bfPYbz4dzpwC5-8">
          <mxGeometry width="50" height="50" relative="1" as="geometry">
            <mxPoint x="905" y="2199" as="sourcePoint" />
            <mxPoint x="1220" y="2320" as="targetPoint" />
          </mxGeometry>
        </mxCell>
        <mxCell id="cK2Vru4bfPYbz4dzpwC5-15" value="include" style="edgeLabel;html=1;align=center;verticalAlign=middle;resizable=0;points=[];rotation=30;" connectable="0" vertex="1" parent="cK2Vru4bfPYbz4dzpwC5-14">
          <mxGeometry x="-0.2042" y="-2" relative="1" as="geometry">
            <mxPoint x="12" y="-13" as="offset" />
          </mxGeometry>
        </mxCell>
      </root>
    </mxGraphModel>
  </diagram>
</mxfile>
